<svg width="50" height="50" viewBox="0 0 50 50" fill="none" xmlns="http://www.w3.org/2000/svg">
<path d="M21 36C21.5523 36 22 35.5523 22 35C22 34.4477 21.5523 34 21 34C20.4477 34 20 34.4477 20 35C20 35.5523 20.4477 36 21 36Z" stroke="#3C3D3D" stroke-width="2" stroke-linecap="round" stroke-linejoin="round"/>
<path d="M32 36C32.5523 36 33 35.5523 33 35C33 34.4477 32.5523 34 32 34C31.4477 34 31 34.4477 31 35C31 35.5523 31.4477 36 32 36Z" stroke="#3C3D3D" stroke-width="2" stroke-linecap="round" stroke-linejoin="round"/>
<path d="M13 15H17L19.68 28.39C19.7714 28.8504 20.0219 29.264 20.3875 29.5583C20.7532 29.8526 21.2107 30.009 21.68 30H31.4C31.8693 30.009 32.3268 29.8526 32.6925 29.5583C33.0581 29.264 33.3086 28.8504 33.4 28.39L35 20H18" stroke="#3C3D3D" stroke-width="2" stroke-linecap="round" stroke-linejoin="round"/>
</svg>
