<svg width="138" height="25" viewBox="0 0 138 25" fill="none" xmlns="http://www.w3.org/2000/svg">
<path d="M40.0749 0.268799H34.7423L31.0327 23.7901H34.378L35.0072 19.5227H39.4787L40.108 23.7901H43.7845L40.0749 0.268799ZM37.2265 4.43543L38.9819 16.3305H35.471L37.2265 4.43543Z" fill="#636969"/>
<path d="M56.809 23.7901C56.4447 22.9165 56.4115 22.0764 56.4115 20.934V17.305C56.4115 14.852 55.8153 13.0711 53.9936 12.2983C55.6166 11.5254 56.3783 9.94614 56.3783 7.5268V5.6787C56.3783 2.0497 54.7555 0.268799 50.9795 0.268799H45.4813V23.7901H49.1247V14.2136H50.3833C52.0394 14.2136 52.7681 15.02 52.7681 17.2041V20.9004C52.7681 22.8157 52.9006 23.1853 53.0994 23.7901H56.809ZM50.8801 3.62899C52.1719 3.62899 52.7349 4.36823 52.7349 6.04832V8.36685C52.7349 10.2486 51.9069 10.8534 50.5489 10.8534H49.1247V3.62899H50.8801Z" fill="#636969"/>
<path d="M62.1529 5.67871C62.1529 3.99862 62.8817 3.36018 64.0409 3.36018C65.2002 3.36018 65.9288 3.99862 65.9288 5.67871V18.3802C65.9288 20.0603 65.2002 20.6987 64.0409 20.6987C62.8817 20.6987 62.1529 20.0603 62.1529 18.3802V5.67871ZM58.5095 18.145C58.5095 21.9084 60.4637 24.0589 64.0409 24.0589C67.618 24.0589 69.5722 21.9084 69.5722 18.145V5.91393C69.5722 2.15052 67.618 0 64.0409 0C60.4637 0 58.5095 2.15052 58.5095 5.91393V18.145Z" fill="#636969"/>
<path d="M77.3056 0.268799H71.9399V23.7901H75.5833V14.9528H77.3056C80.949 14.9528 82.7376 12.9031 82.7376 9.13969V6.08193C82.7376 2.31852 80.949 0.268799 77.3056 0.268799ZM77.3056 3.62899C78.4649 3.62899 79.0942 4.16662 79.0942 5.84671V9.37491C79.0942 11.055 78.4649 11.5926 77.3056 11.5926H75.5833V3.62899H77.3056Z" fill="#636969"/>
<path d="M88.6701 3.62899H92.4791V23.7901H96.1225V3.62899H99.9317V0.268799H88.6701V3.62899Z" fill="#636969"/>
<path d="M105.18 3.62899H111.472V0.268799H101.536V23.7901H111.472V20.4299H105.18V13.5415H110.181V10.1814H105.18V3.62899Z" fill="#636969"/>
<path d="M120.852 15.02V18.3802C120.852 20.0603 120.123 20.6651 118.964 20.6651C117.805 20.6651 117.075 20.0603 117.075 18.3802V5.67871C117.075 3.99862 117.805 3.36018 118.964 3.36018C120.123 3.36018 120.852 3.99862 120.852 5.67871V8.19885H124.297V5.91393C124.297 2.15052 122.441 0 118.864 0C115.287 0 113.432 2.15052 113.432 5.91393V18.145C113.432 21.9084 115.287 24.0589 118.864 24.0589C122.441 24.0589 124.297 21.9084 124.297 18.145V15.02H120.852Z" fill="#636969"/>
<path d="M130.15 13.7096H134.291V23.7901H138V0.268799H134.291V10.3494H130.15V0.268799H126.507V23.7901H130.15V13.7096Z" fill="#636969"/>
<path d="M3.6802 0.144348H0V11.3449H3.6802V0.144348Z" fill="#636969"/>
<path d="M3.6802 18.8121H0V23.7902H3.6802V18.8121Z" fill="#636969"/>
<path d="M11.0403 0.144348H7.36014V7.61143H11.0403V0.144348Z" fill="#636969"/>
<path d="M18.4005 0.144348H14.7203V11.3449H18.4005V0.144348Z" fill="#636969"/>
<path d="M11.0403 15.0785H7.36014V23.7901H11.0403V15.0785Z" fill="#636969"/>
<path d="M18.4005 18.8121H14.7203V23.7902H18.4005V18.8121Z" fill="#636969"/>
</svg>
